<svg width="28" height="28" viewBox="0 0 28 28" fill="none" xmlns="http://www.w3.org/2000/svg">
<path d="M14 0C11.2311 0 8.52431 0.821086 6.22202 2.35943C3.91973 3.89777 2.12532 6.08427 1.06569 8.64243C0.00606598 11.2006 -0.271181 14.0155 0.269012 16.7313C0.809206 19.447 2.14258 21.9416 4.10051 23.8995C6.05845 25.8574 8.55301 27.1908 11.2687 27.731C13.9845 28.2712 16.7994 27.9939 19.3576 26.9343C21.9157 25.8747 24.1022 24.0803 25.6406 21.778C27.1789 19.4757 28 16.7689 28 14C28 12.1615 27.6379 10.341 26.9343 8.64243C26.2308 6.94387 25.1995 5.40053 23.8995 4.1005C22.5995 2.80048 21.0561 1.76925 19.3576 1.06569C17.659 0.362121 15.8385 0 14 0ZM14 25.6662C11.6927 25.6662 9.43711 24.982 7.51861 23.7001C5.60012 22.4182 4.10483 20.5962 3.22184 18.4645C2.33886 16.3327 2.10783 13.9871 2.55797 11.724C3.00811 9.46102 4.11921 7.3823 5.75076 5.75075C7.38231 4.1192 9.46102 3.00811 11.724 2.55796C13.9871 2.10782 16.3328 2.33885 18.4645 3.22184C20.5962 4.10482 22.4182 5.60011 23.7001 7.51861C24.982 9.4371 25.6662 11.6926 25.6662 14C25.6658 17.094 24.4366 20.0611 22.2488 22.2488C20.0611 24.4366 17.094 25.6658 14 25.6662Z" fill="#571613"/>
<path d="M14.7158 9.44614C15.0561 9.44472 15.384 9.31815 15.637 9.09054C15.9011 8.87236 16.0796 8.56791 16.141 8.23094C16.1742 8.08025 16.1713 7.92385 16.1327 7.77448C16.094 7.62511 16.0206 7.48698 15.9184 7.37134C15.8179 7.2544 15.6923 7.16159 15.551 7.09979C15.4097 7.03799 15.2563 7.00879 15.1022 7.01434C14.7619 7.01476 14.4339 7.14205 14.1824 7.37134C13.9158 7.58731 13.7367 7.89278 13.6784 8.23094C13.6543 8.3828 13.6629 8.53808 13.7037 8.68634C13.7445 8.83461 13.8166 8.97242 13.915 9.09054C14.0124 9.20714 14.1352 9.29983 14.2741 9.36148C14.4129 9.42313 14.564 9.45209 14.7158 9.44614Z" fill="#571613"/>
<path d="M17.297 17.7534C17.2662 17.7968 17.2354 17.836 17.206 17.8794C16.7213 18.4951 16.1283 19.017 15.456 19.4194C15.4507 19.4211 15.4459 19.424 15.442 19.4278C15.365 19.4684 15.2852 19.5006 15.2068 19.5356C15.0382 19.5948 14.8627 19.632 14.6846 19.6462C14.4858 19.621 14.378 19.481 14.378 19.2178C14.4082 18.7822 14.4728 18.3497 14.5712 17.9242L14.7196 17.2732L15.3272 14.3598C15.4252 13.8642 15.4784 13.5884 15.4896 13.5338L15.6226 12.852C15.6817 12.5752 15.721 12.2945 15.7402 12.012C15.7468 11.7937 15.6883 11.5783 15.5722 11.3932C15.5619 11.368 15.5487 11.3441 15.533 11.3218C15.5176 11.3036 15.5008 11.2868 15.4854 11.27C15.4698 11.2494 15.4525 11.2302 15.4336 11.2126C15.2455 11.0531 15.0128 10.9553 14.7672 10.9326C13.7825 10.974 12.8342 11.316 12.0498 11.9126L11.991 11.9532C11.6242 12.1827 11.2785 12.4441 10.9578 12.7344C10.7972 12.8679 10.6508 13.0175 10.521 13.181C10.3995 13.3189 10.3254 13.4921 10.3096 13.6752C10.3096 13.7914 10.4034 13.9062 10.5896 14.0224C11.1053 13.4062 11.7407 12.9009 12.4572 12.537C12.6231 12.4642 12.7938 12.4029 12.9682 12.3536C13.0314 12.3353 13.0979 12.3308 13.1631 12.3402C13.2282 12.3496 13.2907 12.3728 13.3462 12.4082C13.3927 12.4593 13.4285 12.5192 13.4513 12.5844C13.4742 12.6496 13.4836 12.7187 13.4792 12.7876C13.4747 12.9893 13.4498 13.1901 13.405 13.3868L13.286 13.9468L13.139 14.6468L12.5608 17.4188C12.3601 18.2647 12.2119 19.1222 12.117 19.9864C12.117 20.6454 12.4772 20.9748 13.1978 20.9748C13.5397 20.9701 13.8789 20.9144 14.2044 20.8096L14.273 20.7844C14.3304 20.7662 14.3878 20.7452 14.4438 20.7228C15.6257 20.2534 16.6654 19.4849 17.4608 18.4926C17.4902 18.4576 17.514 18.4254 17.5364 18.3946L17.5658 18.3526C17.6347 18.2673 17.6788 18.1646 17.6932 18.0558C17.6946 17.9676 17.5588 17.8626 17.297 17.7534Z" fill="#571613"/>
</svg>
